# xmcd
#
# Track frame offsets:
#       150
#       11055
#       21847
#       32637
#       44517
#       54165
#       65995
#       79810
#       90695
#       102172
#       116642
#       128640
#       140377
#       154297
#       166010
#       178670
#       189187
#       202812
#       216927
#       226880
#
# Disc length: 3149 seconds
#
# Revision: 1
# Processed by: cddbd v1.4PL0 Copyright (c) Steve Scherf et al.
# Submitted via: CD-DA_X-Tractor v0.21
#
DISCID=090c4b14
DTITLE=Tennessee Ernie Ford - The Ultimate Collection Disc 1
DYEAR=1900
DGENRE=
TTITLE0=Tennessee Border #1
TTITLE1=Milk 'Em In The Morning Blues
TTITLE2=Country Junction
TTITLE3=Smokey Mountain Boogie
TTITLE4=Anticipation Blues
TTITLE5=Blues Stay Away From Me (with Merle Travis)
TTITLE6=Mule Train
TTITLE7=Feed 'Em In The Morning Blues
TTITLE8=My Hobby
TTITLE9=The Cry Of The Wild Goose
TTITLE10=Ain't Nobody's Business But My Own (with Kay Starr)
TTITLE11=I'll Never Be Free (with Kay Starr)
TTITLE12=Bright Lights and Blonde Haired Women
TTITLE13=The Shotgun Boogie
TTITLE14=Stack-O-Lee
TTITLE15=Tailor Made Woman
TTITLE16=The Strange Little Girl
TTITLE17=Mister and Mississippi
TTITLE18=Rock City Boogie
TTITLE19=Kissin' Bug Boogie
EXTD=
EXTT0=
EXTT1=
EXTT2=
EXTT3=
EXTT4=
EXTT5=
EXTT6=
EXTT7=
EXTT8=
EXTT9=
EXTT10=
EXTT11=
EXTT12=
EXTT13=
EXTT14=
EXTT15=
EXTT16=
EXTT17=
EXTT18=
EXTT19=
PLAYORDER=
